<svg width="1600" height="1000" viewBox="0 0 1600 1000" fill="none" xmlns="http://www.w3.org/2000/svg">
  <defs>
    <linearGradient id="bgAfter" x1="0" y1="0" x2="1600" y2="1000" gradientUnits="userSpaceOnUse">
      <stop stop-color="#FCFBF7"/>
      <stop offset="1" stop-color="#F2EEE4"/>
    </linearGradient>
    <linearGradient id="topbar" x1="250" y1="160" x2="1320" y2="310" gradientUnits="userSpaceOnUse">
      <stop stop-color="#15755F"/>
      <stop offset="1" stop-color="#0F604E"/>
    </linearGradient>
    <filter id="cardShadow" x="0" y="0" width="1600" height="1000" filterUnits="userSpaceOnUse" color-interpolation-filters="sRGB">
      <feOffset dy="18"/>
      <feGaussianBlur stdDeviation="20"/>
      <feColorMatrix type="matrix" values="0 0 0 0 0.133333 0 0 0 0 0.188235 0 0 0 0 0.164706 0 0 0 0.17 0"/>
      <feBlend mode="normal" in2="BackgroundImageFix" result="effect1_dropShadow_1_1"/>
      <feBlend mode="normal" in="SourceGraphic" in2="effect1_dropShadow_1_1" result="shape"/>
    </filter>
  </defs>

  <rect width="1600" height="1000" fill="url(#bgAfter)"/>
  <circle cx="250" cy="160" r="180" fill="#E2F6EF" fill-opacity="0.8"/>
  <circle cx="1340" cy="860" r="220" fill="#F3E9D2" fill-opacity="0.7"/>
  <text x="800" y="78" text-anchor="middle" fill="#204136" font-family="Segoe UI, Arial, sans-serif" font-size="36" font-weight="700">After: Team Planning Workspace</text>
  <text x="800" y="118" text-anchor="middle" fill="#5C7068" font-family="Segoe UI, Arial, sans-serif" font-size="20">The same SharePoint data, reimagined as a practical planning app</text>

  <g filter="url(#cardShadow)">
    <rect x="110" y="150" width="1380" height="790" rx="32" fill="#FCFBF7"/>
  </g>

  <rect x="110" y="150" width="1380" height="138" rx="32" fill="url(#topbar)"/>
  <rect x="110" y="256" width="1380" height="684" fill="#FCFBF7"/>
  <rect x="110" y="908" width="1380" height="32" rx="0 0 32 32" fill="#FCFBF7"/>

  <rect x="146" y="184" width="48" height="48" rx="14" fill="rgba(255,255,255,0.16)"/>
  <text x="162" y="216" fill="#FFFFFF" font-family="Segoe UI, Arial, sans-serif" font-size="24" font-weight="700">T</text>
  <text x="214" y="205" fill="#FFFFFF" font-family="Segoe UI, Arial, sans-serif" font-size="30" font-weight="700">Team Planning Workspace</text>
  <text x="214" y="232" fill="rgba(255,255,255,0.78)" font-family="Segoe UI, Arial, sans-serif" font-size="15">List: Team Planning Data</text>

  <rect x="1128" y="184" width="170" height="56" rx="18" fill="rgba(255,255,255,0.14)" stroke="rgba(255,255,255,0.12)"/>
  <text x="1156" y="205" fill="rgba(255,255,255,0.72)" font-family="Segoe UI, Arial, sans-serif" font-size="12" font-weight="700" letter-spacing="1.2">CURRENT WEEK</text>
  <text x="1156" y="228" fill="#FFFFFF" font-family="Segoe UI, Arial, sans-serif" font-size="18" font-weight="700">06 Apr - 10 Apr</text>
  <rect x="1316" y="184" width="118" height="56" rx="18" fill="rgba(255,255,255,0.16)"/>
  <text x="1349" y="219" fill="#FFFFFF" font-family="Segoe UI, Arial, sans-serif" font-size="16" font-weight="600">Refresh</text>

  <text x="148" y="336" fill="#2C7963" font-family="Segoe UI, Arial, sans-serif" font-size="12" font-weight="700" letter-spacing="1.8">TEAM OPERATIONS</text>
  <text x="148" y="374" fill="#1F2D28" font-family="Segoe UI, Arial, sans-serif" font-size="34" font-weight="700">Weekly task board</text>
  <text x="148" y="406" fill="#50645C" font-family="Segoe UI, Arial, sans-serif" font-size="18">Visible, assigned, and easy to update without sending users back to the raw list</text>

  <rect x="1010" y="328" width="80" height="44" rx="14" fill="#FFFFFF" stroke="#DCE6DE"/>
  <text x="1035" y="356" fill="#355447" font-family="Segoe UI, Arial, sans-serif" font-size="15" font-weight="700">Prev</text>
  <rect x="1104" y="328" width="210" height="44" rx="14" fill="#FFFFFF" stroke="#DCE6DE"/>
  <text x="1142" y="356" fill="#22312B" font-family="Segoe UI, Arial, sans-serif" font-size="15">06 Apr - 10 Apr</text>
  <rect x="1328" y="328" width="80" height="44" rx="14" fill="#FFFFFF" stroke="#DCE6DE"/>
  <text x="1354" y="356" fill="#355447" font-family="Segoe UI, Arial, sans-serif" font-size="15" font-weight="700">Next</text>

  <rect x="1260" y="388" width="148" height="52" rx="18" fill="url(#topbar)"/>
  <text x="1295" y="420" fill="#FFFFFF" font-family="Segoe UI, Arial, sans-serif" font-size="16" font-weight="700">+ New task</text>

  <g font-family="Segoe UI, Arial, sans-serif">
    <rect x="148" y="450" width="184" height="84" rx="22" fill="#FFFFFF" stroke="#ECE7DC"/>
    <text x="176" y="484" fill="#7A897F" font-size="13" font-weight="700" letter-spacing="1.2">TOTAL TASKS</text>
    <text x="176" y="518" fill="#21302A" font-size="30" font-weight="700">12</text>

    <rect x="348" y="450" width="184" height="84" rx="22" fill="#FFFFFF" stroke="#ECE7DC"/>
    <text x="376" y="484" fill="#7A897F" font-size="13" font-weight="700" letter-spacing="1.2">COMPLETED</text>
    <text x="376" y="518" fill="#0D7B54" font-size="30" font-weight="700">4</text>

    <rect x="548" y="450" width="184" height="84" rx="22" fill="#FFFFFF" stroke="#ECE7DC"/>
    <text x="576" y="484" fill="#7A897F" font-size="13" font-weight="700" letter-spacing="1.2">IN PROGRESS</text>
    <text x="576" y="518" fill="#B56D00" font-size="30" font-weight="700">3</text>

    <rect x="748" y="450" width="184" height="84" rx="22" fill="#FFFFFF" stroke="#ECE7DC"/>
    <text x="776" y="484" fill="#7A897F" font-size="13" font-weight="700" letter-spacing="1.2">PAUSED</text>
    <text x="776" y="518" fill="#6E6177" font-size="30" font-weight="700">1</text>

    <rect x="948" y="450" width="184" height="84" rx="22" fill="#FFFFFF" stroke="#ECE7DC"/>
    <text x="976" y="484" fill="#7A897F" font-size="13" font-weight="700" letter-spacing="1.2">PENDING</text>
    <text x="976" y="518" fill="#586B62" font-size="30" font-weight="700">4</text>
  </g>

  <text x="148" y="582" fill="#7A897F" font-family="Segoe UI, Arial, sans-serif" font-size="12" font-weight="700" letter-spacing="1.4">ASSIGNEE</text>
  <rect x="228" y="558" width="66" height="34" rx="17" fill="#DFF7EF" stroke="#39A889"/>
  <text x="249" y="580" fill="#0C5E49" font-family="Segoe UI, Arial, sans-serif" font-size="14" font-weight="700">All</text>
  <rect x="304" y="558" width="98" height="34" rx="17" fill="#FFFFFF" stroke="#DCE6DE"/>
  <text x="328" y="580" fill="#53665D" font-family="Segoe UI, Arial, sans-serif" font-size="14">Worker 1</text>
  <rect x="412" y="558" width="98" height="34" rx="17" fill="#FFFFFF" stroke="#DCE6DE"/>
  <text x="436" y="580" fill="#53665D" font-family="Segoe UI, Arial, sans-serif" font-size="14">Worker 2</text>
  <rect x="520" y="558" width="98" height="34" rx="17" fill="#FFFFFF" stroke="#DCE6DE"/>
  <text x="544" y="580" fill="#53665D" font-family="Segoe UI, Arial, sans-serif" font-size="14">Worker 3</text>

  <rect x="1028" y="558" width="124" height="36" rx="18" fill="#FFFFFF" stroke="#DCE6DE"/>
  <text x="1055" y="581" fill="#315447" font-family="Segoe UI, Arial, sans-serif" font-size="14" font-weight="700">Manage team</text>
  <rect x="1162" y="558" width="84" height="36" rx="18" fill="#DFF7EF" stroke="#39A889"/>
  <text x="1189" y="581" fill="#0C5E49" font-family="Segoe UI, Arial, sans-serif" font-size="14" font-weight="700">Kanban</text>
  <rect x="1256" y="558" width="70" height="36" rx="18" fill="#FFFFFF" stroke="#DCE6DE"/>
  <text x="1278" y="581" fill="#53665D" font-family="Segoe UI, Arial, sans-serif" font-size="14">Daily</text>
  <rect x="1336" y="558" width="112" height="36" rx="18" fill="#FFFFFF" stroke="#DCE6DE"/>
  <text x="1364" y="581" fill="#53665D" font-family="Segoe UI, Arial, sans-serif" font-size="14">Team grid</text>

  <g font-family="Segoe UI, Arial, sans-serif">
    <rect x="148" y="628" width="246" height="238" rx="24" fill="#F7FBF9" stroke="#E5EDE8"/>
    <text x="176" y="664" fill="#2A4A3D" font-size="18" font-weight="700">Monday</text>
    <text x="318" y="664" fill="#7F9087" font-size="14">06 Apr</text>
    <rect x="168" y="688" width="206" height="76" rx="18" fill="#DEF6F0" stroke="#2AA483"/>
    <text x="186" y="714" fill="#0A5A45" font-size="16" font-weight="700">Activity 1</text>
    <text x="186" y="736" fill="#295C4A" font-size="13">Worker 1 • Batch #1001</text>
    <text x="186" y="754" fill="#295C4A" font-size="13">Activity Type 1</text>
    <rect x="168" y="776" width="206" height="60" rx="18" fill="#FFF0DB" stroke="#F0AC42"/>
    <text x="186" y="802" fill="#7A4A09" font-size="16" font-weight="700">Activity 2</text>
    <text x="186" y="824" fill="#7A4A09" font-size="13">Worker 2 • In Progress</text>

    <rect x="412" y="628" width="246" height="238" rx="24" fill="#F7FBF9" stroke="#E5EDE8"/>
    <text x="440" y="664" fill="#2A4A3D" font-size="18" font-weight="700">Tuesday</text>
    <text x="580" y="664" fill="#7F9087" font-size="14">07 Apr</text>
    <rect x="432" y="688" width="206" height="70" rx="18" fill="#E5F1FF" stroke="#5C98DF"/>
    <text x="450" y="714" fill="#174B89" font-size="16" font-weight="700">Activity 3</text>
    <text x="450" y="736" fill="#305B8E" font-size="13">Worker 3 • Completed</text>
    <rect x="432" y="770" width="206" height="60" rx="18" fill="#F1ECFF" stroke="#9382E2"/>
    <text x="450" y="796" fill="#52419C" font-size="16" font-weight="700">Activity 4</text>
    <text x="450" y="818" fill="#52419C" font-size="13">Worker 4 • Paused</text>

    <rect x="676" y="628" width="246" height="238" rx="24" fill="#F7FBF9" stroke="#E5EDE8"/>
    <text x="704" y="664" fill="#2A4A3D" font-size="18" font-weight="700">Wednesday</text>
    <text x="844" y="664" fill="#7F9087" font-size="14">08 Apr</text>
    <rect x="696" y="688" width="206" height="76" rx="18" fill="#F4F0E8" stroke="#B9AD96"/>
    <text x="714" y="714" fill="#5E5548" font-size="16" font-weight="700">Activity 5</text>
    <text x="714" y="736" fill="#5E5548" font-size="13">Worker 5 • Activity Type 5</text>
    <text x="714" y="754" fill="#5E5548" font-size="13">Notes and handoff details</text>

    <rect x="940" y="628" width="246" height="238" rx="24" fill="#F7FBF9" stroke="#E5EDE8"/>
    <text x="968" y="664" fill="#2A4A3D" font-size="18" font-weight="700">Thursday</text>
    <text x="1108" y="664" fill="#7F9087" font-size="14">09 Apr</text>
    <rect x="960" y="688" width="206" height="70" rx="18" fill="#FFE6DD" stroke="#EF9270"/>
    <text x="978" y="714" fill="#8C3A1E" font-size="16" font-weight="700">Activity 6</text>
    <text x="978" y="736" fill="#8C3A1E" font-size="13">Worker 6 • Training</text>
    <rect x="960" y="770" width="206" height="60" rx="18" fill="#DEF6F0" stroke="#2AA483"/>
    <text x="978" y="796" fill="#0A5A45" font-size="16" font-weight="700">Activity 7</text>
    <text x="978" y="818" fill="#295C4A" font-size="13">Worker 7 • Pending</text>

    <rect x="1204" y="628" width="246" height="238" rx="24" fill="#F7FBF9" stroke="#E5EDE8"/>
    <text x="1232" y="664" fill="#2A4A3D" font-size="18" font-weight="700">Friday</text>
    <text x="1372" y="664" fill="#7F9087" font-size="14">10 Apr</text>
    <rect x="1224" y="688" width="206" height="76" rx="18" fill="#E5F1FF" stroke="#5C98DF"/>
    <text x="1242" y="714" fill="#174B89" font-size="16" font-weight="700">Activity 8</text>
    <text x="1242" y="736" fill="#305B8E" font-size="13">Worker 8 • Completed</text>
    <text x="1242" y="754" fill="#305B8E" font-size="13">09:00 - 11:30 tracked</text>
  </g>

  <g font-family="Segoe UI, Arial, sans-serif" font-size="14">
    <text x="148" y="902" fill="#5F746A">Legend</text>
    <circle cx="206" cy="897" r="8" fill="#DEF6F0" stroke="#2AA483"/>
    <text x="220" y="902" fill="#566A61">Type 1</text>
    <circle cx="304" cy="897" r="8" fill="#E5F1FF" stroke="#5C98DF"/>
    <text x="318" y="902" fill="#566A61">Type 2</text>
    <circle cx="402" cy="897" r="8" fill="#FFF0DB" stroke="#F0AC42"/>
    <text x="416" y="902" fill="#566A61">Type 3</text>
    <circle cx="500" cy="897" r="8" fill="#F1ECFF" stroke="#9382E2"/>
    <text x="514" y="902" fill="#566A61">Type 4</text>
    <circle cx="598" cy="897" r="8" fill="#F4F0E8" stroke="#B9AD96"/>
    <text x="612" y="902" fill="#566A61">Type 5</text>
  </g>
</svg>
